<svg width="22" height="28" viewBox="0 0 22 28" fill="none" xmlns="http://www.w3.org/2000/svg">
    <path d="M21.6267 17.8133L20.8666 12.2666C20.24 7.63991 16.6667 4.05325 12.32 3.43992V2.01333C12.32 1.27999 11.72 0.679993 10.9867 0.679993C10.2533 0.679993 9.65333 1.27999 9.65333 2.01333V3.43992C5.30666 4.06659 1.75998 7.63991 1.11998 12.2666L0.359992 17.8133C0.159992 19.2533 0.586645 20.6933 1.53331 21.76C2.42664 22.7733 3.69332 23.3599 5.02666 23.3599H6.42666C6.72 25.5866 8.61332 27.32 10.92 27.32C13.2267 27.32 15.12 25.5866 15.4133 23.3599H16.92C18.2533 23.3599 19.52 22.7733 20.4133 21.76C21.36 20.68 21.7867 19.24 21.5867 17.8133H21.6267ZM10.9467 24.6666C10.1067 24.6666 9.41331 24.1199 9.15998 23.3733H12.7333C12.48 24.1199 11.7867 24.6666 10.9467 24.6666ZM18.44 20.0133C18.0533 20.4533 17.52 20.7066 16.9467 20.7066H5.03998C4.46665 20.7066 3.94666 20.4667 3.54666 20.0133C3.11999 19.52 2.91998 18.84 3.01331 18.1733L3.77332 12.6266C4.27999 8.85327 7.38665 5.99998 11 5.99998C14.6133 5.99998 17.7066 8.85327 18.2266 12.6266L18.9867 18.1733C19.08 18.84 18.88 19.52 18.4533 20.0133H18.44Z" fill="#13A3B9"/>
</svg>
